HIERARCHY
ROOT Hips
{
	OFFSET 0.000000 35.082581 0.000000
	CHANNELS 6 Xposition Yposition Zposition Xrotation Yrotation Zrotation 
	JOINT Spine
	{
		OFFSET 0.000000 6.876099 0.125700
		CHANNELS 3 Xrotation Yrotation Zrotation
		JOINT Spine1
		{
			OFFSET 0.000000 5.730043 0.104720
			CHANNELS 3 Xrotation Yrotation Zrotation
			JOINT Spine1_split
			{
				OFFSET 0.000000 5.730043 0.104720
				CHANNELS 3 Xrotation Yrotation Zrotation
				JOINT Spine2
				{
					OFFSET 0.000000 5.730043 0.104720
					CHANNELS 3 Xrotation Yrotation Zrotation
					JOINT Neck
					{
						OFFSET 0.000000 10.314075 0.188496
						CHANNELS 3 Xrotation Yrotation Zrotation
						JOINT Head
						{
							OFFSET 0.000000 7.643700 -2.377400
							CHANNELS 3 Xrotation Yrotation Zrotation
							JOINT HeadTop_End
							{
								OFFSET 0.000000 43.788605 -13.619600
								CHANNELS 3 Xrotation Yrotation Zrotation
								End Site
								{
									OFFSET 0.000000 0.000000 0.000000
								}
							}
						}
					}
					JOINT LeftShoulder
					{
						OFFSET 2.196100 4.412489 0.087492
						CHANNELS 3 Xrotation Yrotation Zrotation
						JOINT LeftShoulder_split
						{
							OFFSET 2.196100 4.412489 0.087492
							CHANNELS 3 Xrotation Yrotation Zrotation
							JOINT LeftArm
							{
								OFFSET 8.771219 -2.981674 -0.026999
								CHANNELS 3 Xrotation Yrotation Zrotation
								JOINT LeftForeArm
								{
									OFFSET 8.512804 0.000000 -0.000000
									CHANNELS 3 Xrotation Yrotation Zrotation
									JOINT LeftHand
									{
										OFFSET 18.484802 0.000000 -0.000000
										CHANNELS 3 Xrotation Yrotation Zrotation
										JOINT LeftHandThumb1
										{
											OFFSET 2.499420 -1.158070 2.653252
											CHANNELS 3 Xrotation Yrotation Zrotation
											JOINT LeftHandThumb2
											{
												OFFSET 2.370079 -1.368366 1.368366
												CHANNELS 3 Xrotation Yrotation Zrotation
												JOINT LeftHandThumb3
												{
													OFFSET 2.676727 -1.545410 1.545409
													CHANNELS 3 Xrotation Yrotation Zrotation
													JOINT LeftHandThumb4
													{
														OFFSET 1.692226 -0.977005 0.977007
														CHANNELS 3 Xrotation Yrotation Zrotation
														End Site
														{
															OFFSET 0.000000 0.000000 0.000000
														}
													}
												}
											}
										}
										JOINT LeftHandIndex1
										{
											OFFSET 7.924831 -0.457527 2.345128
											CHANNELS 3 Xrotation Yrotation Zrotation
											JOINT LeftHandIndex2
											{
												OFFSET 3.643303 0.000000 0.000000
												CHANNELS 3 Xrotation Yrotation Zrotation
												JOINT LeftHandIndex3
												{
													OFFSET 3.810799 0.000000 0.000000
													CHANNELS 3 Xrotation Yrotation Zrotation
													JOINT LeftHandIndex4
													{
														OFFSET 2.403702 0.000000 0.000000
														CHANNELS 3 Xrotation Yrotation Zrotation
														End Site
														{
															OFFSET 0.000000 0.000000 0.000000
														}
													}
												}
											}
										}
										JOINT LeftHandMiddle1
										{
											OFFSET 8.563995 0.000000 -0.000000
											CHANNELS 3 Xrotation Yrotation Zrotation
											JOINT LeftHandMiddle2
											{
												OFFSET 3.861618 0.000000 0.000000
												CHANNELS 3 Xrotation Yrotation Zrotation
												JOINT LeftHandMiddle3
												{
													OFFSET 3.701603 0.000000 0.000000
													CHANNELS 3 Xrotation Yrotation Zrotation
													JOINT LeftHandMiddle4
													{
														OFFSET 2.322544 0.000000 0.000000
														CHANNELS 3 Xrotation Yrotation Zrotation
														End Site
														{
															OFFSET 0.000000 0.000000 0.000000
														}
													}
												}
											}
										}
										JOINT LeftHandRing1
										{
											OFFSET 8.426460 -0.424637 -3.286992
											CHANNELS 3 Xrotation Yrotation Zrotation
											JOINT LeftHandRing2
											{
												OFFSET 3.126408 0.000000 0.000000
												CHANNELS 3 Xrotation Yrotation Zrotation
												JOINT LeftHandRing3
												{
													OFFSET 3.085026 0.000000 0.000000
													CHANNELS 3 Xrotation Yrotation Zrotation
													JOINT LeftHandRing4
													{
														OFFSET 1.644005 0.000000 0.000000
														CHANNELS 3 Xrotation Yrotation Zrotation
														End Site
														{
															OFFSET 0.000000 0.000000 0.000000
														}
													}
												}
											}
										}
									}
								}
							}
						}
					}
					JOINT RightShoulder
					{
						OFFSET -2.196100 4.412496 0.070690
						CHANNELS 3 Xrotation Yrotation Zrotation
						JOINT RightShoulder_split
						{
							OFFSET -2.196100 4.412496 0.070690
							CHANNELS 3 Xrotation Yrotation Zrotation
							JOINT RightArm
							{
								OFFSET -8.771282 -2.981682 -0.094208
								CHANNELS 3 Xrotation Yrotation Zrotation
								JOINT RightForeArm
								{
									OFFSET -8.494598 0.000000 0.000000
									CHANNELS 3 Xrotation Yrotation Zrotation
									JOINT RightHand
									{
										OFFSET -18.483803 0.000000 0.000001
										CHANNELS 3 Xrotation Yrotation Zrotation
										JOINT RightHandThumb1
										{
											OFFSET -2.527351 -1.008072 2.575253
											CHANNELS 3 Xrotation Yrotation Zrotation
											JOINT RightHandThumb2
											{
												OFFSET -2.321518 -1.340328 1.340329
												CHANNELS 3 Xrotation Yrotation Zrotation
												JOINT RightHandThumb3
												{
													OFFSET -2.657753 -1.534454 1.534455
													CHANNELS 3 Xrotation Yrotation Zrotation
													JOINT RightHandThumb4
													{
														OFFSET -1.807510 -1.043568 1.043567
														CHANNELS 3 Xrotation Yrotation Zrotation
														End Site
														{
															OFFSET 0.000000 0.000000 0.000000
														}
													}
												}
											}
										}
										JOINT RightHandIndex1
										{
											OFFSET -8.811420 0.015533 2.887987
											CHANNELS 3 Xrotation Yrotation Zrotation
											JOINT RightHandIndex2
											{
												OFFSET -3.537502 0.000000 0.000000
												CHANNELS 3 Xrotation Yrotation Zrotation
												JOINT RightHandIndex3
												{
													OFFSET -3.356201 0.000000 0.000000
													CHANNELS 3 Xrotation Yrotation Zrotation
													JOINT RightHandIndex4
													{
														OFFSET -1.933098 0.000000 0.000000
														CHANNELS 3 Xrotation Yrotation Zrotation
														End Site
														{
															OFFSET 0.000000 0.000000 0.000000
														}
													}
												}
											}
										}
										JOINT RightHandMiddle1
										{
											OFFSET -8.178135 0.000000 0.000000
											CHANNELS 3 Xrotation Yrotation Zrotation
											JOINT RightHandMiddle2
											{
												OFFSET -3.901302 0.000000 0.000000
												CHANNELS 3 Xrotation Yrotation Zrotation
												JOINT RightHandMiddle3
												{
													OFFSET -3.909599 0.000000 0.000000
													CHANNELS 3 Xrotation Yrotation Zrotation
													JOINT RightHandMiddle4
													{
														OFFSET -2.376003 0.000000 0.000000
														CHANNELS 3 Xrotation Yrotation Zrotation
														End Site
														{
															OFFSET 0.000000 0.000000 0.000000
														}
													}
												}
											}
										}
										JOINT RightHandRing1
										{
											OFFSET -7.559013 0.014137 -2.865403
											CHANNELS 3 Xrotation Yrotation Zrotation
											JOINT RightHandRing2
											{
												OFFSET -3.449306 0.000000 0.000000
												CHANNELS 3 Xrotation Yrotation Zrotation
												JOINT RightHandRing3
												{
													OFFSET -3.362106 0.000000 0.000000
													CHANNELS 3 Xrotation Yrotation Zrotation
													JOINT RightHandRing4
													{
														OFFSET -2.076401 0.000000 0.000000
														CHANNELS 3 Xrotation Yrotation Zrotation
														End Site
														{
															OFFSET 0.000000 0.000000 0.000000
														}
													}
												}
											}
										}
									}
								}
							}
						}
					}
				}
			}
		}
	}
	JOINT LeftUpLeg
	{
		OFFSET 10.205400 -3.823500 0.155100
		CHANNELS 3 Xrotation Yrotation Zrotation
		JOINT LeftLeg
		{
			OFFSET 0.708757 -12.982077 0.567790
			CHANNELS 3 Xrotation Yrotation Zrotation
			JOINT LeftFoot
			{
				OFFSET -0.708756 -10.717838 -2.184338
				CHANNELS 3 Xrotation Yrotation Zrotation
				JOINT LeftToeBase
				{
					OFFSET 0.108149 -7.191104 7.560241
					CHANNELS 3 Xrotation Yrotation Zrotation
					JOINT LeftToe_End
					{
						OFFSET 0.070230 0.081724 4.490308
						CHANNELS 3 Xrotation Yrotation Zrotation
						End Site
						{
							OFFSET 0.000000 0.000000 0.000000
						}
					}
				}
			}
		}
	}
	JOINT RightUpLeg
	{
		OFFSET -10.205400 -3.823500 0.005500
		CHANNELS 3 Xrotation Yrotation Zrotation
		JOINT RightLeg
		{
			OFFSET -0.708756 -12.982134 0.610632
			CHANNELS 3 Xrotation Yrotation Zrotation
			JOINT RightFoot
			{
				OFFSET 0.708754 -10.717769 -1.945823
				CHANNELS 3 Xrotation Yrotation Zrotation
				JOINT RightToeBase
				{
					OFFSET -0.108140 -7.191069 7.372968
					CHANNELS 3 Xrotation Yrotation Zrotation
					JOINT RightToe_End
					{
						OFFSET -0.070227 0.081735 4.479403
						CHANNELS 3 Xrotation Yrotation Zrotation
						End Site
						{
							OFFSET 0.000000 0.000000 0.000000
						}
					}
				}
			}
		}
	}
}
MOTION
Frames: 4
Frame Time: 0.016667
-5.379192 26.395466 -1.414590 -6.215406 -41.577008 1.886109 9.592797 6.308419 -1.197394 2.766069 -0.356989 -2.318342 0.000000 0.000000 0.000000 2.765117 -0.254305 -2.356228 2.319646 13.599722 3.258859 11.523875 19.676542 -2.051255 0.000001 0.000000 0.000001 2.217712 0.696457 -13.443979 0.000000 0.000000 0.000000 -68.029736 -0.403271 -40.075722 0.000002 -108.716770 0.000006 0.135997 -4.421003 -12.826683 -6.141216 -11.690805 -6.761702 9.914120 42.595505 3.409855 -0.422814 8.108071 27.509108 -0.000003 0.000001 -0.000002 0.255313 3.378219 -45.814348 5.654079 5.847765 -88.067462 2.162140 4.544813 -50.866382 0.000003 -0.000000 0.000004 -0.461468 3.841599 -39.722693 6.450745 5.820365 -95.892871 2.182903 4.561577 -51.127746 0.000000 0.000002 -0.000002 0.469719 4.966837 -39.799454 8.181044 5.368637 -113.502991 3.200499 5.218129 -63.022961 -0.000000 -0.000000 0.000000 2.599459 11.718739 -12.158740 0.000000 0.000000 0.000000 -64.262893 18.736215 84.603129 0.000183 87.058172 -0.000181 -17.320439 37.211922 21.718837 -7.341089 13.749666 7.412334 9.855750 -44.489107 -3.903266 -0.115785 -14.513078 -28.973857 -0.000000 0.000001 0.000002 -0.124365 -2.384785 45.108871 4.500594 -4.654549 88.071164 1.723237 -3.618368 50.920119 0.000000 -0.000000 0.000002 -0.761615 -2.932902 39.031058 5.133889 -4.632751 95.881649 1.739725 -3.631706 51.181374 -0.000001 -0.000001 0.000003 0.154774 -4.068818 39.122675 6.509735 -4.273581 113.462877 2.549591 -4.153929 63.067344 0.000000 0.000001 -0.000001 -28.504362 -0.265942 32.828686 53.915591 -14.130532 9.057549 -19.629486 -6.934166 -36.369340 -7.665829 0.000003 0.000004 -0.000000 -0.000002 0.000000 -22.354772 -2.208925 -50.454409 68.080416 3.109186 -6.808587 -25.811900 -14.742214 37.534536 0.006015 0.000012 0.012361 0.000000 0.000000 -0.000000 
-5.632920 26.583843 -1.488129 -6.552565 -41.743890 1.802069 9.581786 6.159984 -1.109155 2.786419 -0.645108 -2.360986 0.000000 0.000000 0.000000 2.784641 -0.532872 -2.409947 2.357359 13.650858 3.291967 11.963593 19.954413 -2.414292 0.000003 0.000000 0.000001 2.119628 1.326088 -13.029569 0.000000 0.000000 0.000000 -67.198816 -0.218709 -41.239186 0.000001 -108.751276 -0.000004 0.302972 -4.918420 -12.653560 -6.141218 -11.690805 -6.761701 9.914116 42.595505 3.409856 -0.422811 8.108071 27.509116 -0.000003 0.000001 0.000002 0.255313 3.378219 -45.814351 5.654077 5.847765 -88.067462 2.162141 4.544814 -50.866382 -0.000002 0.000000 -0.000003 -0.461468 3.841600 -39.722690 6.450744 5.820369 -95.892871 2.182904 4.561576 -51.127743 -0.000001 0.000000 0.000002 0.469720 4.966838 -39.799461 8.181040 5.368635 -113.502984 3.200502 5.218129 -63.022968 -0.000000 0.000001 0.000002 2.565284 11.280117 -12.138908 0.000000 0.000000 0.000000 -64.922075 18.398001 84.997907 0.000511 87.809035 -0.000471 -17.630036 37.319727 21.737781 -7.341088 13.749660 7.412343 9.855761 -44.489110 -3.903261 -0.115786 -14.513083 -28.973857 -0.000000 0.000001 0.000003 -0.124363 -2.384783 45.108871 4.500596 -4.654549 88.071164 1.723237 -3.618369 50.920109 0.000000 0.000000 -0.000002 -0.761613 -2.932900 39.031061 5.133892 -4.632750 95.881649 1.739726 -3.631705 51.181374 0.000001 -0.000001 -0.000000 0.154774 -4.068816 39.122675 6.509736 -4.273582 113.462877 2.549593 -4.153928 63.067337 0.000000 0.000001 0.000000 -28.331840 -0.569607 32.798200 53.590515 -14.778957 9.285266 -16.208911 -6.832225 -36.625421 -10.327827 -0.000527 0.012401 -0.000000 0.000002 0.000000 -22.033516 -2.810938 -50.221558 67.795146 2.948592 -6.580953 -26.344940 -14.381928 36.860697 0.004192 -0.000010 0.010003 0.000000 0.000000 -0.000001 
-5.905966 26.805183 -1.558240 -6.725344 -41.907606 1.825890 9.562217 6.033430 -1.071234 2.771244 -0.888552 -2.411324 0.000000 0.000000 0.000000 2.769536 -0.770334 -2.469699 2.323234 13.688409 3.351657 12.263287 20.206068 -2.684245 0.000000 -0.000000 -0.000000 2.040255 1.891021 -12.727352 0.000000 0.000000 0.000000 -66.041912 -0.227476 -42.512709 -0.000007 -108.614693 0.000000 0.616221 -5.150693 -12.859887 -6.141219 -11.690801 -6.761704 9.914118 42.595512 3.409857 -0.422813 8.108074 27.509116 -0.000004 0.000003 -0.000003 0.255311 3.378219 -45.814344 5.654077 5.847766 -88.067462 2.162146 4.544814 -50.866382 -0.000000 -0.000000 -0.000002 -0.461471 3.841596 -39.722679 6.450745 5.820370 -95.892871 2.182903 4.561575 -51.127740 -0.000000 0.000001 -0.000003 0.469717 4.966838 -39.799458 8.181041 5.368634 -113.502991 3.200497 5.218128 -63.022961 -0.000000 0.000001 -0.000001 2.522562 10.738734 -12.141190 0.000000 0.000000 0.000000 -65.351264 18.105127 85.470037 0.000065 88.672671 0.000302 -17.925700 37.372084 21.709948 -7.341088 13.749663 7.412337 9.855755 -44.489113 -3.903267 -0.115778 -14.513080 -28.973857 0.000002 0.000001 -0.000003 -0.124362 -2.384784 45.108874 4.500595 -4.654551 88.071164 1.723236 -3.618369 50.920116 -0.000001 -0.000000 -0.000002 -0.761613 -2.932902 39.031065 5.133892 -4.632750 95.881649 1.739723 -3.631705 51.181374 0.000000 0.000001 0.000001 0.154775 -4.068819 39.122678 6.509735 -4.273583 113.462877 2.549591 -4.153929 63.067344 0.000000 0.000001 0.000001 -28.405975 -0.941092 32.639825 53.550517 -15.376687 9.298096 -12.650097 -6.647769 -36.319316 -12.891160 0.029900 -0.344198 0.000000 -0.000000 0.000000 -21.699105 -3.471655 -49.809008 67.351519 2.725893 -6.408141 -26.834539 -14.138567 36.169663 0.000195 0.000006 0.004976 0.000000 0.000000 -0.000000 
-6.184204 27.047722 -1.618237 -6.748352 -42.085085 1.940519 9.532945 5.938638 -1.075233 2.720345 -1.070418 -2.460024 0.000000 0.000000 0.000000 2.719148 -0.949809 -2.525623 2.229912 13.710762 3.433357 12.372786 20.430354 -2.883343 0.000002 -0.000000 -0.000001 1.997485 2.324988 -12.601793 0.000000 0.000000 0.000000 -64.622523 -0.436632 -43.747744 -0.000004 -108.319403 0.000017 1.063123 -5.154249 -13.436458 -6.141217 -11.690803 -6.761703 9.914110 42.595505 3.409859 -0.422808 8.108077 27.509115 -0.000000 0.000000 0.000001 0.255312 3.378219 -45.814348 5.654079 5.847766 -88.067462 2.162138 4.544814 -50.866382 0.000000 0.000001 -0.000001 -0.461471 3.841597 -39.722686 6.450745 5.820368 -95.892871 2.182905 4.561577 -51.127743 -0.000000 -0.000000 0.000002 0.469717 4.966835 -39.799454 8.181038 5.368636 -113.502984 3.200500 5.218129 -63.022968 -0.000000 -0.000000 0.000001 2.474457 10.139565 -12.169924 0.000000 0.000000 0.000000 -65.449331 17.878893 85.928397 -0.000303 89.657387 0.001212 -18.193420 37.393455 21.742347 -7.341086 13.749663 7.412332 9.855758 -44.489110 -3.903267 -0.115782 -14.513085 -28.973857 0.000003 0.000004 -0.000000 -0.124364 -2.384785 45.108868 4.500594 -4.654551 88.071164 1.723236 -3.618369 50.920116 0.000000 -0.000000 0.000001 -0.761615 -2.932901 39.031055 5.133891 -4.632751 95.881649 1.739725 -3.631706 51.181374 0.000000 0.000000 -0.000001 0.154774 -4.068817 39.122675 6.509735 -4.273581 113.462877 2.549592 -4.153928 63.067344 0.000000 0.000001 -0.000000 -28.791997 -1.319532 32.202245 54.373592 -15.381113 9.278633 -10.073971 -6.602568 -34.649526 -14.048978 0.206003 -1.794849 0.000000 -0.000001 0.000000 -21.359019 -4.134966 -49.243065 66.759983 2.452155 -6.295046 -27.241967 -13.999586 35.495062 -0.003605 0.000022 0.000397 0.000000 -0.000001 0.000000 
